:version 1.10
:name ASF
:units
  mass 1
  length 1
  angle deg
:documentation
  ASF file generated by Kaydara
:root
  axis xyz
  order  tx ty tz rx ry rz
  position 0 0 0
  orientation 0 0 0
:bonedata
  begin
    id 1
    name LeftUpLegDummy
    direction 1 -2.30186e-007 -8.31532e-007
    length 2.93387
    axis 0 0 0 xyz
  end
  begin
    id 2
    name LeftUpLeg
    direction -1.82929e-007 -1 -1.48925e-009
    length 17.3336
    axis -3.48766 0.00143442 -0.000521554 xyz
    dof rx ry rz
  end
  begin
    id 3
    name LeftLeg
    direction -1.82929e-007 -1 -5.23717e-011
    length 14.9995
    axis 3.68178 -0.00654042 -0.000282425 xyz
    dof rx ry rz
  end
  begin
    id 4
    name LeftFoot
    direction 8.31532e-007 -4.54534e-011 1
    length 6.74421
    axis 1.87234e-006 4.66016e-005 -5.96866e-006 xyz
    dof rx ry rz
  end
  begin
    id 5
    name LeftToes
    direction 0.00818058 -0.00485161 0.999955
    length 3.85048
    axis 1.06247e-005 4.65869e-005 -5.96999e-006 xyz
    dof rx ry rz
  end
  begin
    id 6
    name SpineDummy
    direction -5.8607e-008 0.943407 -0.331637
    length 5.93572
    axis 0 0 0 xyz
  end
  begin
    id 7
    name Spine
    direction -1.04988e-007 0.999988 0.00495137
    length 10.1015
    axis -0.001389 0.000121417 6.61666e-006 xyz
    dof rx ry rz
  end
  begin
    id 8
    name Spine1
    direction 0 0 0
    length 0
    axis -0.001389 0.00012144 6.56766e-006 xyz
    dof rx ry rz
  end
  begin
    id 9
    name RightShoulderDummy
    direction -0.98348 0.17941 -0.0240696
    length 3.59882
    axis -0.001389 0.00012144 6.56766e-006 xyz
  end
  begin
    id 10
    name RightShoulder
    direction -0.978693 0.204882 0.0135597
    length 2.70001
    axis 0.215806 0.000203631 -0.00679732 xyz
    dof rx ry rz
  end
  begin
    id 11
    name RightArm
    direction -1 3.85509e-006 8.31394e-007
    length 10.2459
    axis -23.2009 -0.134239 -0.964098 xyz
    dof rx ry rz
  end
  begin
    id 12
    name RightForeArm
    direction -1 3.85569e-006 8.3129e-007
    length 8.16799
    axis -9.92322 0.0658061 0.17887 xyz
    dof rx ry rz
  end
  begin
    id 13
    name RightHand
    direction -0.992843 -0.0414604 0.112003
    length 5.28593
    axis -0.00960638 0.00330669 -0.185225 xyz
    dof rx ry rz
  end
  begin
    id 14
    name LeftShoulder1Dummy
    direction 0.983523 0.179172 -0.0240748
    length 3.59866
    axis -0.001389 0.00012144 6.56766e-006 xyz
  end
  begin
    id 15
    name LeftShoulder1
    direction 0.978627 0.205195 0.0135605
    length 2.70019
    axis -0.001389 0.00012144 6.57583e-006 xyz
    dof rx ry rz
  end
  begin
    id 16
    name LeftArm
    direction 1 3.51895e-006 -8.60188e-007
    length 10.2459
    axis -23.1894 0.134785 0.967513 xyz
    dof rx ry rz
  end
  begin
    id 17
    name LeftForeArm
    direction 1 3.51921e-006 -7.32029e-007
    length 8.16799
    axis -9.91835 -0.0656957 -0.177789 xyz
    dof rx ry rz
  end
  begin
    id 18
    name LeftHand
    direction 0.992938 -0.0411636 0.11126
    length 5.32135
    axis -0.00960237 -0.00340661 0.185177 xyz
    dof rx ry rz
  end
  begin
    id 19
    name HEadDummy
    direction 1.01974e-006 0.999861 -0.016675
    length 2.99946
    axis -0.001389 0.00012144 6.56766e-006 xyz
  end
  begin
    id 20
    name HEad
    direction -0.0222689 0.980941 0.193023
    length 5.12695
    axis -0.001389 0.00012144 6.56766e-006 xyz
    dof rx ry rz
  end
  begin
    id 21
    name RightUpLegDummy
    direction -1 2.30186e-007 8.31532e-007
    length 2.93387
    axis 0 0 0 xyz
  end
  begin
    id 22
    name RightUpLeg
    direction -1.82966e-007 -1 1.56832e-007
    length 17.3336
    axis -3.4909 -0.000906625 0.00028951 xyz
    dof rx ry rz
  end
  begin
    id 23
    name RightLeg
    direction -1.82786e-007 -1 -1.80317e-007
    length 14.9995
    axis 3.68513 0.0193739 -0.131021 xyz
    dof rx ry rz
  end
  begin
    id 24
    name RightFoot
    direction 8.31721e-007 -4.63324e-011 1
    length 6.74421
    axis 4.81691e-005 -0.120479 -0.188785 xyz
    dof rx ry rz
  end
  begin
    id 25
    name RightToes
    direction 0.00124746 -0.014064 0.9999
    length 3.85082
    axis 0.000481921 0.542163 -0.142575 xyz
    dof rx ry rz
  end
:hierarchy
  begin
    root LeftUpLegDummy SpineDummy RightUpLegDummy
    LeftUpLegDummy LeftUpLeg
    LeftUpLeg LeftLeg
    LeftLeg LeftFoot
    LeftFoot LeftToes
    SpineDummy Spine
    Spine Spine1
    Spine1 RightShoulderDummy LeftShoulder1Dummy HEadDummy
    RightShoulderDummy RightShoulder
    RightShoulder RightArm
    RightArm RightForeArm
    RightForeArm RightHand
    LeftShoulder1Dummy LeftShoulder1
    LeftShoulder1 LeftArm
    LeftArm LeftForeArm
    LeftForeArm LeftHand
    HEadDummy HEad
    RightUpLegDummy RightUpLeg
    RightUpLeg RightLeg
    RightLeg RightFoot
    RightFoot RightToes
  end

:SAMPLES-PER-SECOND 30
:FULLY-SPECIFIED
:DEGREES
216
root  4.38216 34.1488 -7.35729 -173.153 57.4827 -178.876
LeftUpLeg  -15.2634 3.8183 7.0485
LeftLeg  23.5975 -0.587982 -0.215854
LeftFoot  0.841319 0.00193388 0.0399246
LeftToes  -25.0524 7.65994e-007 1.12379e-007
Spine  5.1675 1.84876 0.516744
Spine1  10.2102 4.00872 0.658687
RightShoulder  0.0557082 0.409687 -10.5822
RightArm  11.04 2.7381 81.2021
RightForeArm  140.654 58.0842 163.175
RightHand  -0.281147 -13.0801 2.82059
LeftShoulder1  -0.00619351 -0.00576269 -0.627273
LeftArm  -10.8786 24.7452 -69.0226
LeftForeArm  49.3099 -71.9006 -32.8983
LeftHand  -0.0295094 -0.577366 5.54849
HEad  2.41377 -7.87284 -2.13739
RightUpLeg  -11.0929 -12.7065 1.73177
RightLeg  12.3007 6.12869 0.928632
RightFoot  -0.279442 -0.000889502 0.012823
RightToes  -25.9064 -0.120495 -0.227552
217
root  4.20671 34.2003 -7.37189 -173.438 58.5398 179.88
LeftUpLeg  -16.6756 5.02419 6.02822
LeftLeg  21.7042 -0.574417 -0.189466
LeftFoot  2.50068 0.00331471 0.0280584
LeftToes  -23.6926 7.65994e-007 1.12379e-007
Spine  5.6027 1.82617 0.217078
Spine1  11.0335 4.01086 0.0226139
RightShoulder  0.0559282 0.535679 -10.8148
RightArm  12.9009 2.12229 80.3559
RightForeArm  140.6 59.7887 161.981
RightHand  -0.825615 -12.6152 7.82484
LeftShoulder1  -0.00677359 -0.212347 -0.641945
LeftArm  -10.4634 23.9196 -68.8016
LeftForeArm  43.9564 -68.6895 -27.0434
LeftHand  -0.0159703 -0.321602 5.43327
HEad  -0.649285 -6.69506 -2.82743
RightUpLeg  -12.3524 -11.9596 1.09411
RightLeg  12.5796 6.3388 0.991787
RightFoot  0.129338 0.000355412 0.0623112
RightToes  -25.8767 -0.120917 -0.227776
218
root  4.01464 34.2546 -7.41623 -173.732 59.2431 178.412
LeftUpLeg  -17.9256 5.57531 4.91133
LeftLeg  17.9892 -0.422635 -0.109899
LeftFoot  5.54436 0.00427476 0.018549
LeftToes  -23.7427 7.65994e-007 1.12379e-007
Spine  6.01778 1.72352 -0.148889
Spine1  11.808 3.86164 -0.748801
RightShoulder  0.0557176 0.938536 -10.6217
RightArm  14.3851 1.16378 79.2588
RightForeArm  141.041 61.3535 160.762
RightHand  -1.16777 -11.7625 11.6638
LeftShoulder1  -0.00689844 -0.3675 -0.72128
LeftArm  -9.53173 22.5024 -68.1919
LeftForeArm  40.4694 -65.1199 -22.4632
LeftHand  -0.00164198 -0.0425969 4.83493
HEad  -3.53378 -5.72562 -3.01848
RightUpLeg  -13.701 -11.5543 0.353939
RightLeg  12.6487 6.55952 1.03424
RightFoot  0.631049 0.00138516 0.12588
RightToes  -25.9108 -0.121685 -0.228315
219
root  3.82055 34.2959 -7.4991 -173.652 59.9202 177.478
LeftUpLeg  -18.9115 5.91499 4.09121
LeftLeg  14.1506 -1.33207 -0.247756
LeftFoot  9.12689 0.0152556 -0.150108
LeftToes  -23.1079 7.65994e-007 1.12379e-007
Spine  6.438 1.61574 -0.400217
Spine1  12.6175 3.67599 -1.26744
RightShoulder  0.0553353 1.36065 -10.4522
RightArm  15.5083 -0.205088 78.1859
RightForeArm  139.758 63.4202 158.94
RightHand  -1.3957 -11.4921 14.1659
LeftShoulder1  -0.00659282 -0.618623 -0.740589
LeftArm  -8.94434 20.8529 -67.8726
LeftForeArm  37.9705 -61.1228 -18.7229
LeftHand  -0.00629233 -0.174392 3.91891
HEad  -6.24385 -4.83799 -3.56572
RightUpLeg  -14.8792 -11.2822 -0.175057
RightLeg  12.562 6.90331 1.07751
RightFoot  1.24847 0.00185974 0.206741
RightToes  -26.1794 -0.122827 -0.2292
220
root  3.63069 34.3097 -7.633 -173.223 60.8559 176.996
LeftUpLeg  -19.7114 6.68475 3.44924
LeftLeg  11.4939 -2.23457 -0.30783
LeftFoot  11.4721 0.0303877 -0.385936
LeftToes  -22.4394 7.65994e-007 1.12379e-007
Spine  6.88199 1.54699 -0.587945
Spine1  13.495 3.54622 -1.62889
RightShoulder  0.0548024 1.73381 -10.2064
RightArm  16.4447 -1.68166 77.099
RightForeArm  138.395 65.4471 156.851
RightHand  -1.62857 -11.2898 16.7259
LeftShoulder1  -0.00588152 -0.808791 -0.859557
LeftArm  -8.57032 19.1631 -67.6322
LeftForeArm  36.0821 -57.182 -15.9186
LeftHand  -0.00710656 -0.208317 3.65971
HEad  -8.7022 -4.06901 -4.12052
RightUpLeg  -16.0594 -10.9868 -0.549604
RightLeg  12.607 7.4796 1.17294
RightFoot  1.73602 0.0014318 0.28293
RightToes  -26.628 -0.124371 -0.230463
221
root  3.44009 34.2986 -7.83152 -172.083 62.0495 177.343
LeftUpLeg  -20.3042 7.67197 3.0625
LeftLeg  10.8454 -1.80766 -0.22841
LeftFoot  11.4113 0.0251205 -0.306637
LeftToes  -22.1158 7.65994e-007 1.12379e-007
Spine  7.28021 1.49405 -0.634297
Spine1  14.3131 3.40841 -1.66986
RightShoulder  0.0543159 1.99802 -10.0341
RightArm  17.6586 -3.02991 75.9857
RightForeArm  137.307 67.4227 154.434
RightHand  -1.74569 -10.7919 18.6839
LeftShoulder1  -0.00478931 -0.99649 -0.845697
LeftArm  -8.83359 17.7189 -67.9695
LeftForeArm  34.6483 -53.4434 -13.7898
LeftHand  -0.00123152 -0.0399253 3.83007
HEad  -11.0664 -2.84833 -4.97792
RightUpLeg  -17.279 -11.0612 -0.560531
RightLeg  12.7887 8.67878 1.3877
RightFoot  2.16177 -6.47152e-005 0.380854
RightToes  -27.2132 -0.126347 -0.232138
222
root  3.2487 34.2954 -8.06635 -170.883 63.2571 177.992
LeftUpLeg  -20.5388 8.72362 2.74401
LeftLeg  10.2 -1.83742 -0.211081
LeftFoot  11.3925 0.025637 -0.31835
LeftToes  -21.5996 7.65994e-007 1.12379e-007
Spine  7.8245 1.36286 -0.618825
Spine1  15.42 3.11503 -1.60489
RightShoulder  0.0539309 2.41633 -9.94909
RightArm  18.9911 -3.90824 74.9946
RightForeArm  133.957 69.7885 150.871
RightHand  -1.78723 -10.5445 19.5462
LeftShoulder1  -0.00334097 -1.16128 -0.853597
LeftArm  -10.0372 16.2825 -68.6042
LeftForeArm  33.6734 -50.0404 -12.1691
LeftHand  0.0135261 0.348674 3.99361
HEad  -13.4498 -1.22272 -5.92503
RightUpLeg  -18.0869 -10.8028 -0.592017
RightLeg  12.5826 9.57649 1.49488
RightFoot  2.81356 -0.00356361 0.522528
RightToes  -27.7569 -0.128784 -0.236078
